<svg width="100" height="100" viewBox="0 0 100 100" fill="none" xmlns="http://www.w3.org/2000/svg">
  <!-- Background Circle with subtle gradient -->
  <defs>
    <linearGradient id="bgGradient" x1="0%" y1="0%" x2="100%" y2="100%">
      <stop offset="0%" style="stop-color:#1a1a1a;stop-opacity:1" />
      <stop offset="100%" style="stop-color:#000000;stop-opacity:1" />
    </linearGradient>
  </defs>

  <circle cx="50" cy="50" r="45" fill="url(#bgGradient)" stroke="white" stroke-width="2" stroke-opacity="0.8"/>

  <!-- Neural Network Pattern -->
  <g transform="translate(50, 50)">
    <!-- Connection nodes -->
    <circle cx="0" cy="-20" r="3" fill="white" opacity="0.9"/>
    <circle cx="15" cy="-12" r="2.5" fill="white" opacity="0.8"/>
    <circle cx="-15" cy="-12" r="2.5" fill="white" opacity="0.8"/>
    <circle cx="20" cy="0" r="2" fill="white" opacity="0.7"/>
    <circle cx="-20" cy="0" r="2" fill="white" opacity="0.7"/>
    <circle cx="12" cy="15" r="2.5" fill="white" opacity="0.8"/>
    <circle cx="-12" cy="15" r="2.5" fill="white" opacity="0.8"/>
    <circle cx="0" cy="20" r="3" fill="white" opacity="0.9"/>

    <!-- Neural pathways -->
    <path d="M0,-20 Q7.5,-16 15,-12" stroke="white" stroke-width="1.5" stroke-opacity="0.6" fill="none"/>
    <path d="M0,-20 Q-7.5,-16 -15,-12" stroke="white" stroke-width="1.5" stroke-opacity="0.6" fill="none"/>
    <path d="M15,-12 Q17.5,-6 20,0" stroke="white" stroke-width="1.2" stroke-opacity="0.5" fill="none"/>
    <path d="M-15,-12 Q-17.5,-6 -20,0" stroke="white" stroke-width="1.2" stroke-opacity="0.5" fill="none"/>
    <path d="M20,0 Q9,7.5 12,15" stroke="white" stroke-width="1.2" stroke-opacity="0.5" fill="none"/>
    <path d="M-20,0 Q-9,7.5 -12,15" stroke="white" stroke-width="1.2" stroke-opacity="0.5" fill="none"/>
    <path d="M12,15 Q6,17.5 0,20" stroke="white" stroke-width="1.5" stroke-opacity="0.6" fill="none"/>
    <path d="M-12,15 Q-6,17.5 0,20" stroke="white" stroke-width="1.5" stroke-opacity="0.6" fill="none"/>

    <!-- Central cognitive processing unit -->
    <circle cx="0" cy="0" r="8" fill="none" stroke="white" stroke-width="2" stroke-opacity="0.7"/>
    <circle cx="0" cy="0" r="3" fill="white"/>
    <circle cx="0" cy="0" r="1.5" fill="black"/>
  </g>

  <!-- Sound waves representing speech/language -->
  <g transform="translate(75, 50)" opacity="0.7">
    <!-- Primary sound wave -->
    <path d="M0,-8 Q3,-8 3,-4 Q3,0 0,0 Q-3,0 -3,-4 Q-3,-8 0,-8"
          fill="none" stroke="white" stroke-width="2" stroke-linecap="round"/>
    <!-- Secondary sound wave -->
    <path d="M6,-10 Q9,-10 9,-5 Q9,0 6,0 Q3,0 3,-5 Q3,-10 6,-10"
          fill="none" stroke="white" stroke-width="1.5" stroke-linecap="round" opacity="0.6"/>
    <!-- Tertiary sound wave -->
    <path d="M12,-12 Q15,-12 15,-6 Q15,0 12,0 Q9,0 9,-6 Q9,-12 12,-12"
          fill="none" stroke="white" stroke-width="1" stroke-linecap="round" opacity="0.4"/>
  </g>

  <!-- Subtle accent elements -->
  <circle cx="25" cy="25" r="1" fill="white" opacity="0.3"/>
  <circle cx="75" cy="75" r="1" fill="white" opacity="0.3"/>
  <circle cx="75" cy="25" r="0.8" fill="white" opacity="0.4"/>
  <circle cx="25" cy="75" r="0.8" fill="white" opacity="0.4"/>
</svg>
